<?xml version="1.0" encoding="UTF-8" standalone="no"?>
<!DOCTYPE svg PUBLIC "-//W3C//DTD SVG 1.1//EN" "http://www.w3.org/Graphics/SVG/1.1/DTD/svg11.dtd">
<svg width="100%" height="100%" viewBox="0 0 1060 210" version="1.1" xmlns="http://www.w3.org/2000/svg" xmlns:xlink="http://www.w3.org/1999/xlink" xml:space="preserve" xmlns:serif="http://www.serif.com/" style="fill-rule:evenodd;clip-rule:evenodd;stroke-linejoin:round;stroke-miterlimit:1.41421;">
    <g id="barres" transform="matrix(1,0,0,1,-108.5,-271.5)">
        <g id="grande">
            <g transform="matrix(1.0019,0,0,1.06667,-2.21652,-19.2667)">
                <path d="M1167,278.243C1167,275.901 1164.98,274 1162.48,274L118.517,274C116.024,274 114,275.901 114,278.243L114,284.757C114,287.099 116.024,289 118.517,289L1162.48,289C1164.98,289 1167,287.099 1167,284.757L1167,278.243Z" style="fill:rgb(6,95,182);"/>
            </g>
            <g transform="matrix(1.0019,0,0,1.06667,-2.21652,12.5667)">
                <path d="M1167,278.243C1167,275.901 1164.98,274 1162.48,274L118.517,274C116.024,274 114,275.901 114,278.243L114,284.757C114,287.099 116.024,289 118.517,289L1162.48,289C1164.98,289 1167,287.099 1167,284.757L1167,278.243Z" style="fill:rgb(6,95,182);"/>
            </g>
            <g transform="matrix(1.0019,0,0,1.06667,-2.21652,139.9)">
                <path d="M1167,278.243C1167,275.901 1164.98,274 1162.48,274L118.517,274C116.024,274 114,275.901 114,278.243L114,284.757C114,287.099 116.024,289 118.517,289L1162.48,289C1164.98,289 1167,287.099 1167,284.757L1167,278.243Z" style="fill:rgb(6,95,182);"/>
            </g>
            <g id="l" transform="matrix(1.0019,0,0,1.06667,-2.21652,171.733)">
                <path d="M1167,278.243C1167,275.901 1164.98,274 1162.48,274L118.517,274C116.024,274 114,275.901 114,278.243L114,284.757C114,287.099 116.024,289 118.517,289L1162.48,289C1164.98,289 1167,287.099 1167,284.757L1167,278.243Z" style="fill:rgb(6,95,182);"/>
            </g>
        </g>
        <g id="petite">
            <g transform="matrix(0.11396,0,0,1.06667,99.0085,108.067)">
                <path d="M1167,278.243C1167,275.901 1149.2,274 1127.29,274L153.715,274C131.796,274 114,275.901 114,278.243L114,284.757C114,287.099 131.796,289 153.715,289L1127.29,289C1149.2,289 1167,287.099 1167,284.757L1167,278.243Z" style="fill:rgb(6,95,182);"/>
            </g>
            <g transform="matrix(0.11396,0,0,1.06667,1034.01,108.067)">
                <path d="M1167,278.243C1167,275.901 1149.2,274 1127.29,274L153.715,274C131.796,274 114,275.901 114,278.243L114,284.757C114,287.099 131.796,289 153.715,289L1127.29,289C1149.2,289 1167,287.099 1167,284.757L1167,278.243Z" style="fill:rgb(6,95,182);"/>
            </g>
            <g transform="matrix(0.11396,0,0,1.06667,99.0085,76.2333)">
                <path d="M1167,278.243C1167,275.901 1149.2,274 1127.29,274L153.715,274C131.796,274 114,275.901 114,278.243L114,284.757C114,287.099 131.796,289 153.715,289L1127.29,289C1149.2,289 1167,287.099 1167,284.757L1167,278.243Z" style="fill:rgb(6,95,182);"/>
            </g>
            <g transform="matrix(0.11396,0,0,1.06667,1034.01,76.2333)">
                <path d="M1167,278.243C1167,275.901 1149.2,274 1127.29,274L153.715,274C131.796,274 114,275.901 114,278.243L114,284.757C114,287.099 131.796,289 153.715,289L1127.29,289C1149.2,289 1167,287.099 1167,284.757L1167,278.243Z" style="fill:rgb(6,95,182);"/>
            </g>
            <g transform="matrix(0.11396,0,0,1.06667,99.0085,44.4)">
                <path d="M1167,278.243C1167,275.901 1149.2,274 1127.29,274L153.715,274C131.796,274 114,275.901 114,278.243L114,284.757C114,287.099 131.796,289 153.715,289L1127.29,289C1149.2,289 1167,287.099 1167,284.757L1167,278.243Z" style="fill:rgb(6,95,182);"/>
            </g>
            <g id="p" transform="matrix(0.11396,0,0,1.06667,1034.01,44.4)">
                <path d="M1167,278.243C1167,275.901 1149.2,274 1127.29,274L153.715,274C131.796,274 114,275.901 114,278.243L114,284.757C114,287.099 131.796,289 153.715,289L1127.29,289C1149.2,289 1167,287.099 1167,284.757L1167,278.243Z" style="fill:rgb(6,95,182);"/>
            </g>
        </g>
    </g>
    <g id="Logo-Cam" serif:id="Logo Cam" transform="matrix(1,0,0,1,132.036,54.1496)">
        <path d="M30,87.7C16.4,83.9 9.4,72.6 8.3,55.8C6.7,33 17.7,17 36.5,14.5C42.6,13.7 51.8,15.3 57.7,18.1C61.5,19.9 67,25.9 67,28.2C67,28.7 63.7,29 59.6,29C54,29 52.1,28.6 51.6,27.5C50.6,24.8 44.7,22 40,22C27.8,22 22.1,33.3 23.3,55.3C24,68.2 25.3,72.5 30,77.2C31.032,78.232 34.3,81 39.1,81C44.7,81 50.5,77.4 51.6,74.5C52.1,73.4 54,74 59.7,74L67.2,74L66.5,76.8C65.4,81.3 61.3,85.8 57.2,87C51.042,89.692 34.465,88.947 30,87.7Z" style="fill:rgb(10,51,117);fill-rule:nonzero;"/>
        <path d="M68,89.04L91.3,15.3L110.8,15.3L134,89.04L119.6,89.04L117.4,81.5L115.2,74.5L101.2,74.2L87.2,73.9L84.8,81.2L82.5,89.04L68,89.04ZM110.6,58.8C109.3,54.8 106.8,46.9 105.1,41.3C103.3,35.6 101.5,31 101.2,31C100.6,31 93,54.4 90.2,64.3C89.8,65.8 90.8,66 101.3,66L112.8,66L110.6,58.8Z" style="fill:rgb(10,51,117);fill-rule:nonzero;"/>
        <path d="M142.5,89.04C142.5,89.04 142.1,70.3 142.2,50.5L142.5,14.157L155.4,14.2C172,13.9 178,15.1 183.2,19.8C191.4,27.2 194.5,37.7 193.7,55.1C193.1,69.7 191.3,74.8 184.5,81.6C180.4,85.8 178.4,87 174.1,87.9C166.7,89.5 142.5,89.04 142.5,89.04ZM172.7,79.5C177,76.5 178.5,69.1 178.5,50.5C178.5,34.9 178.3,33.1 176.2,28.9C173.5,23.4 170.8,22 163,22L157,22L157,81L163.8,81C168.2,81 171.3,80.5 172.7,79.5Z" style="fill:rgb(10,51,117);fill-rule:nonzero;"/>
        <path d="M209.5,89.04L209.5,14.157L231.4,14.157L243,62.3L255,14.157L276,14L275.5,89.04L260.2,89.04L260.5,37L248.8,89.04L237.1,89L236.1,85.3C235.6,83.2 224.8,37 224.8,37L224.5,89.04L209.5,89.04Z" style="fill:rgb(10,51,117);fill-rule:nonzero;"/>
        <path d="M337.3,88C335,87.5 331.8,86.4 330.2,85.6C326.4,83.7 322,78.4 322,75.9C322,74.2 322.8,74 328.6,74C334.8,74 335.3,74.2 338.4,77.5C341.4,80.7 342.2,81 347.2,81C354.3,81 358,77.9 358,71.9C358,67.2 356.4,65.9 342.3,58.8C329.6,52.5 323.9,47.3 322.1,40.8C319.2,30.6 323.6,21.2 333.1,17C341.257,13.394 352.4,13.6 360.2,15.9C365.9,17.5 371.9,22.6 372.3,26C372.5,28.4 372.3,28.5 366.1,28.8C359.9,29.1 359.6,29 356.5,25.6C354.492,23.398 350.25,21.79 346.7,22C341.11,22.331 337.3,24.3 336.5,27C335.4,30.4 337,34.8 340.1,37.5C341.8,38.8 347.7,42.3 353.2,45.2C369.2,53.4 373,57.7 373,68C373,76.5 368.4,83.3 360.5,86.6C356.629,89.667 343.3,89.3 337.3,88Z" style="fill:rgb(10,51,117);fill-rule:nonzero;"/>
        <g transform="matrix(1,0,0,1,417.782,0.739753)">
            <path d="M337.3,88C335,87.5 331.8,86.4 330.2,85.6C326.4,83.7 322,78.4 322,75.9C322,74.2 322.8,74 328.6,74C334.8,74 335.3,74.2 338.4,77.5C341.4,80.7 342.2,81 347.2,81C354.3,81 358,77.9 358,71.9C358,67.2 356.4,65.9 342.3,58.8C329.6,52.5 323.9,47.3 322.1,40.8C319.2,30.6 323.6,21.2 333.1,17C341.257,13.394 352.4,13.6 360.2,15.9C365.9,17.5 371.9,22.6 372.3,26C372.5,28.4 372.3,28.5 366.1,28.8C359.9,29.1 359.6,29 356.5,25.6C354.492,23.398 350.25,21.79 346.7,22C341.11,22.331 337.3,24.3 336.5,27C335.4,30.4 337,34.8 340.1,37.5C341.8,38.8 347.7,42.3 353.2,45.2C369.2,53.4 373,57.7 373,68C373,76.5 368.4,83.3 360.5,86.6C356.629,89.667 343.3,89.3 337.3,88Z" style="fill:rgb(10,51,117);fill-rule:nonzero;"/>
        </g>
        <path d="M448.5,89.04C448.5,89.04 448.1,70.3 448.2,50.5L448.5,14.157L467,14.157C487.8,14.257 490.9,15.3 495.3,21.1C502.2,30.3 501.3,47.1 493.5,53.9C491.5,55.6 489.3,57 488.5,57C486.2,57 486.7,58.1 490.9,62.5C495,66.6 506.3,89.04 506.3,89.04L490.9,89L486.5,79.8C481.1,68.6 475.8,61.3 472.4,60C471,59.4 468.3,59 466.5,59L463.1,59L462.8,73.8L462.5,89.04L448.5,89.04ZM480.9,49.7C485.9,45.5 486.6,29.1 481.8,24.1C480.2,22.3 478.7,22 471.5,22L463,22L463,52.3L471.2,51.6C475.7,51.2 480,50.4 480.9,49.7Z" style="fill:rgb(10,51,117);fill-rule:nonzero;"/>
        <path d="M530.7,89.04L508.8,14.157L522.5,14.157L531.4,43.3C536.3,59.1 540.6,72 541,72C541.3,72 545.4,59.7 550,44.8C554.6,29.8 559.2,14.157 559.2,14.157L573.5,14.157L549,89.04L530.7,89.04Z" style="fill:rgb(10,51,117);fill-rule:nonzero;"/>
        <rect x="582.5" y="14.157" width="14" height="74.883" style="fill:rgb(10,51,117);fill-rule:nonzero;"/>
        <path d="M650.4,88.5C632.796,91.358 621.2,80.5 617.3,74.1C609.8,61.6 610.2,40.2 618.2,27.7C626.2,15.2 644.9,10.6 659.7,17.4C665.3,20 670,24.5 670,27.2C670,28.7 669,29 663.7,29C658.5,29 657,28.6 655.4,26.9C652.4,23.5 648.5,22 643.1,22C638.9,22 637.5,22.5 634.6,25C628.9,30 627.5,35.3 627.5,51.5C627.5,67.7 628.9,73 634.6,78C637.5,80.5 638.9,81 643.1,81C648.5,81 652.4,79.5 655.4,76.1C657,74.4 658.5,74 663.6,74C667.1,74 670.2,74.4 670.5,75C670.8,75.5 670.1,77.8 669,80C666.1,85.8 657.129,87.408 650.4,88.5Z" style="fill:rgb(10,51,117);fill-rule:nonzero;"/>
        <path d="M403,81L432.851,81.04L432.851,89.04L388.678,89.04L388.5,14.222L432.5,14.222L432.36,22.744L403,22.744L403,43.77L432.851,43.77L432.851,51.77L403,51.77L403,81Z" style="fill:rgb(10,51,117);"/>
        <g transform="matrix(1,0,0,1,290.906,-0.0655071)">
            <path d="M403,81L432.851,81.04L432.851,89.04L388.678,89.04L388.5,14.222L432.5,14.222L432.36,22.744L403,22.744L403,43.77L432.851,43.77L432.851,51.77L403,51.77L403,81Z" style="fill:rgb(10,51,117);"/>
        </g>
    </g>
</svg>
