<?xml version="1.0" encoding="UTF-8" standalone="no"?>
<!DOCTYPE svg PUBLIC "-//W3C//DTD SVG 1.1//EN" "http://www.w3.org/Graphics/SVG/1.1/DTD/svg11.dtd">
<svg width="100%" height="100%" viewBox="0 0 350 50" version="1.1" xmlns="http://www.w3.org/2000/svg" xmlns:xlink="http://www.w3.org/1999/xlink" xml:space="preserve" xmlns:serif="http://www.serif.com/" style="fill-rule:evenodd;clip-rule:evenodd;stroke-linejoin:round;stroke-miterlimit:1.41421;">
    <g id="g7312" transform="matrix(0.221004,0,0,0.221004,-177.988,-25.0306)">
        <path id="path6671" d="M1377.5,310.9C1356.8,308.3 1338.2,298.6 1323.5,282.8C1312.6,271 1306.2,256.9 1303.9,239.5C1297.5,190.6 1328.7,150 1378.6,142.5C1396.2,139.8 1414.3,140.7 1437.3,145.2L1448,147.3L1448,172.8L1439.3,169.9C1424.6,164.9 1415.1,162.9 1402.5,162.3C1380.6,161.3 1366.4,166.4 1352.9,180C1340.6,192.4 1335,206.4 1335,225C1335,242.5 1339.9,255.6 1350.7,267C1358.7,275.5 1365.8,280.3 1375.9,284C1395,291 1415.1,290.4 1441.2,282C1446.4,280.4 1451,279 1451.4,279C1451.7,279 1452,284.1 1452,290.4L1452,301.7L1444.5,303.9C1421.6,310.7 1396.9,313.3 1377.5,310.9Z" style="fill-rule:nonzero;"/>
        <path id="path6673" d="M2109.5,305.3C2079.1,301.2 2057.7,285.2 2053.1,263.2C2047.1,234.5 2065.3,210.2 2098.8,202.4C2109.9,199.8 2126,198.9 2138.7,200.1C2174.3,203.4 2197.4,220.2 2200.9,245.5C2202.1,253.6 2201,263.3 2198.1,270.9C2191.7,287.7 2173.3,300.1 2148.3,304.5C2140.4,305.9 2117.3,306.4 2109.5,305.3ZM2140,291C2152.8,288.6 2162.8,281.2 2167.6,270.7C2170.2,265.1 2170.5,263.5 2170.5,253.5C2170.5,238.6 2168.7,233.5 2160.6,225.4C2153.4,218.3 2147.4,215.6 2134.8,214C2117.9,211.9 2102.8,215.8 2093,224.6C2080.2,236.2 2078.9,263.2 2090.5,278.4C2094.2,283.3 2102.3,288.2 2109.9,290.2C2117.4,292.1 2132,292.5 2140,291Z" style="fill-rule:nonzero;"/>
        <path id="path6675" d="M838,253L838,202L867,202L867,225C867,239.9 867.4,248 868,248C868.6,248 884.1,237.6 902.6,225L936.2,201.9L951.3,202.2L966.5,202.5L932.3,225.9C913.4,238.7 898,249.6 898,250C898,250.5 915,261.8 935.8,275.1C956.5,288.4 975.1,300.4 977,301.7L980.5,304L962.5,304L944.5,304L906.2,279.5C885.2,266 867.7,255 867.5,255C867.2,255 867,266 867,279.5L867,304L852.5,304L838,304L838,253Z" style="fill-rule:nonzero;"/>
        <path id="path6677" d="M995,253L995,202L1113,202L1113,216L1068.5,216L1024,216L1024,244L1099,244L1099,258L1061.5,258L1024,258L1024,290L1119,290L1119,304L1057,304L995,304L995,253Z" style="fill-rule:nonzero;"/>
        <path id="path6679" d="M1193.8,283.3L1193.5,262.6L1162.7,234.4C1145.7,218.9 1130.9,205.3 1129.7,204.1L1127.6,202L1144.5,202.1L1161.5,202.1L1185.5,224.5C1198.7,236.9 1209.8,246.9 1210.2,246.7C1210.5,246.6 1222.6,236.5 1237,224.3L1263.2,202L1277.3,202C1290.6,202 1291.2,202.1 1289.7,203.8C1288.8,204.7 1273.3,218.3 1255.1,234L1222.1,262.5L1222,283.3L1222,304L1208,304L1194,304L1193.8,283.3Z" style="fill-rule:nonzero;"/>
        <path id="path6681" d="M1466,252.9L1466,201.8L1506.8,202.3C1538.9,202.7 1548.9,203.1 1554.3,204.4C1568.8,207.7 1579,214.6 1581.1,222.4C1583.2,230.1 1580.1,239.1 1573.3,245C1569.6,248.3 1556,255.2 1550.8,256.5C1549.2,256.9 1548,257.7 1548,258.4C1548.1,259 1561.2,269.5 1577.2,281.8L1606.2,304L1588.1,304L1570,304L1543.5,283.5L1517,263L1506,263L1495,263L1495,304L1480.5,304L1466,304L1466,252.9ZM1529.1,246.6C1542.8,243.7 1551,237.3 1551,229.6C1551,219.5 1540.4,216 1509.3,216L1495,216L1495,249.3L1508.8,248.6C1516.3,248.3 1525.5,247.3 1529.1,246.6Z" style="fill-rule:nonzero;"/>
        <path id="path6683" d="M1622,253L1622,202L1739,202L1739,216L1694.5,216L1650,216L1650,244L1725,244L1725,258L1687.5,258L1650,258L1650,290L1745,290L1745,304L1683.5,304L1622,304L1622,253Z" style="fill-rule:nonzero;"/>
        <path id="path6685" d="M1772.8,277.8C1782.5,263.3 1797.9,240.5 1807,227L1823.5,202.5L1837.5,202.3L1851.5,202L1857.4,210.8C1860.6,215.6 1876,238.5 1891.7,261.8L1920.1,304L1904.7,304L1889.2,304L1881.4,291.5L1873.5,279.1L1835.3,279L1797,279L1788.9,291.5L1780.8,304L1767.9,304L1755,304L1772.8,277.8ZM1863,264.4C1863,263.5 1835.6,222 1835.1,222C1834.2,222 1808,262.7 1808,263.9C1808,264.7 1816.4,265 1835.5,265C1850.6,265 1863,264.8 1863,264.4Z" style="fill-rule:nonzero;"/>
        <path id="path6687" d="M1958,260L1958,216L1925.5,216L1893,216L1893,209L1893,202L2052,202L2052,216L2019,216L1986,216L1986,304L1972,304L1958,304L1958,260Z" style="fill-rule:nonzero;"/>
        <path id="path6689" d="M2216,253L2216,202L2249.3,202C2267.5,202 2287.4,202.5 2293.4,203C2322.4,205.8 2335.7,217 2330.9,234.4C2329.2,240.6 2322.8,246.6 2312.6,251.5C2307.6,253.9 2302.2,256.2 2300.7,256.6C2299.2,256.9 2298.1,257.7 2298.3,258.4C2298.6,259.3 2313.2,270.8 2349.9,299L2356.4,304L2338.4,304L2320.4,304L2293.8,283.5L2267.1,263L2256.1,263L2245,263L2245,304L2230.5,304L2216,304L2216,253ZM2269,248C2292.1,245.6 2305.1,236.4 2300.6,225.5C2297.7,218.7 2285.9,216 2259.3,216L2245,216L2245,249L2252.3,249C2256.2,249 2263.8,248.5 2269,248Z" style="fill-rule:nonzero;"/>
    </g>
</svg>
